solid small_rock.stl
  facet normal -0.000000 0.000000 -1.000000
    outer loop
      vertex 0.150000 0.100000 0.000000
      vertex -0.120000 -0.080000 0.000000
      vertex -0.100000 0.120000 0.000000
    endloop
  endfacet
  facet normal 0.000000 0.000000 -1.000000
    outer loop
      vertex 0.150000 0.100000 0.000000
      vertex 0.100000 -0.100000 0.000000
      vertex -0.120000 -0.080000 0.000000
    endloop
  endfacet
  facet normal -0.061242 -0.765523 -0.640487
    outer loop
      vertex 0.150000 0.100000 0.000000
      vertex 0.020000 0.010000 0.120000
      vertex -0.100000 0.120000 0.000000
    endloop
  endfacet
  facet normal 0.673934 -0.067393 -0.735711
    outer loop
      vertex -0.100000 0.120000 0.000000
      vertex 0.020000 0.010000 0.120000
      vertex -0.120000 -0.080000 0.000000
    endloop
  endfacet
  facet normal 0.068896 0.757858 -0.648772
    outer loop
      vertex -0.120000 -0.080000 0.000000
      vertex 0.020000 0.010000 0.120000
      vertex 0.100000 -0.100000 0.000000
    endloop
  endfacet
  facet normal -0.732249 0.183062 -0.655973
    outer loop
      vertex 0.100000 -0.100000 0.000000
      vertex 0.020000 0.010000 0.120000
      vertex 0.150000 0.100000 0.000000
    endloop
  endfacet
endsolid small_rock.stl
